{
.appVersion = "3223";
.formatVersion = 3;
DisplayStrings = (
ABCDEFGHIJKLMNOPRSTUVWXYZ
);
date = "2023-09-29 07:07:32 +0000";
familyName = "Danfo*";
fontMaster = (
{
guides = (
{
pos = (45,636);
},
{
pos = (358,412);
},
{
pos = (322,484);
},
{
pos = (358,412);
},
{
pos = (322,484);
},
{
pos = (358,412);
},
{
pos = (322,484);
}
);
id = m01;
metricValues = (
{
pos = 900;
},
{
over = 16;
pos = 716;
},
{
pos = 412;
},
{
over = -14;
},
{
pos = -100;
}
);
name = Flat;
}
);
glyphs = (
{
color = 2;
glyphname = A;
lastChange = "2023-10-31 15:44:43 +0000";
layers = (
{
layerId = m01;
shapes = (
{
closed = 1;
nodes = (
(333,0,l),
(335,445,l),
(318,445,ls),
(299,445,o),
(281,454,o),
(281,473,cs),
(281,487,o),
(292,501,o),
(318,501,cs),
(405,501,ls),
(428,501,o),
(441,490,o),
(441,474,cs),
(441,457,o),
(428,445,o),
(405,445,cs),
(377,445,l),
(382,0,l),
(675,0,l),
(677,548,l),
(578,548,o),
(478,625,o),
(460,716,c),
(260,716,l),
(253,629,o),
(141,550,o),
(32,555,c),
(38,0,l)
);
},
{
closed = 1;
nodes = (
(361,647,l),
(413,540,l),
(384,540,ls),
(369,540,o),
(367,541,o),
(358,557,c),
(350,541,o),
(348,539,o),
(333,539,cs),
(312,539,l)
);
}
);
width = 709;
}
);
unicode = 65;
},
{
color = 2;
glyphname = B;
lastChange = "2023-10-31 15:44:43 +0000";
layers = (
{
layerId = m01;
shapes = (
{
closed = 1;
nodes = (
(463,1,ls),
(591,1,o),
(648,82,o),
(648,176,cs),
(648,348,ls),
(648,424,o),
(623,484,o),
(537,506,c),
(537,516,l),
(627,516,o),
(647,569,o),
(647,618,cs),
(647,661,o),
(634,716,o),
(556,716,cs),
(37,716,l),
(37,636,l),
(76,636,o),
(103,618,o),
(103,590,cs),
(103,462,ls),
(103,432,o),
(76,404,o),
(37,404,c),
(37,0,l)
);
},
{
closed = 1;
nodes = (
(284,479,l),
(391,478,ls),
(431,478,o),
(447,456,o),
(447,431,cs),
(447,407,o),
(431,383,o),
(397,383,cs),
(283,382,l)
);
},
{
closed = 1;
nodes = (
(286,649,l),
(407,649,ls),
(431,649,o),
(451,639,o),
(451,620,cs),
(451,602,o),
(437,585,o),
(402,585,cs),
(287,585,l)
);
}
);
width = 683;
}
);
unicode = 66;
},
{
color = 2;
glyphname = C;
lastChange = "2023-10-31 15:44:43 +0000";
layers = (
{
layerId = m01;
shapes = (
{
closed = 1;
nodes = (
(442,0,ls),
(529,0,o),
(612,41,o),
(613,145,cs),
(616,488,l),
(485,488,l),
(485,449,o),
(469,416,o),
(425,416,cs),
(385,416,ls),
(348,416,o),
(317,437,o),
(317,466,cs),
(317,579,ls),
(317,617,o),
(340,628,o),
(361,628,cs),
(439,628,ls),
(460,628,o),
(491,616,o),
(493,595,cs),
(498,549,l),
(620,551,l),
(620,668,o),
(520,716,o),
(441,716,cs),
(175,716,ls),
(101,716,o),
(32,661,o),
(32,549,cs),
(32,161,ls),
(32,62,o),
(78,0,o),
(179,0,cs)
);
}
);
width = 652;
}
);
unicode = 67;
},
{
color = 2;
glyphname = D;
lastChange = "2023-10-31 15:44:43 +0000";
layers = (
{
layerId = m01;
shapes = (
{
closed = 1;
nodes = (
(417,0,ls),
(531,0,o),
(574,87,o),
(574,162,cs),
(574,586,ls),
(574,661,o),
(534,716,o),
(444,716,cs),
(33,716,l),
(33,653,l),
(95,653,o),
(106,604,o),
(106,566,cs),
(106,465,ls),
(106,430,o),
(95,386,o),
(33,386,c),
(33,0,l)
);
},
{
closed = 1;
nodes = (
(324,642,l),
(386,642,ls),
(418,642,o),
(439,602,o),
(439,553,cs),
(439,493,o),
(419,471,o),
(393,471,cs),
(324,471,l)
);
}
);
width = 606;
}
);
unicode = 68;
},
{
color = 2;
glyphname = E;
lastChange = "2023-10-31 15:44:43 +0000";
layers = (
{
layerId = m01;
shapes = (
{
closed = 1;
nodes = (
(610,0,l),
(607,460,l),
(489,460,l),
(489,422,o),
(481,404,o),
(460,404,cs),
(287,404,l),
(287,473,l),
(438,473,l),
(438,552,l),
(287,552,l),
(287,615,l),
(453,615,ls),
(479,615,o),
(491,590,o),
(491,556,c),
(606,556,l),
(606,716,l),
(35,716,l),
(35,639,l),
(89,639,o),
(112,628,o),
(112,579,cs),
(112,442,ls),
(112,412,o),
(98,390,o),
(35,390,c),
(35,0,l)
);
}
);
width = 642;
}
);
unicode = 69;
},
{
color = 2;
glyphname = F;
lastChange = "2023-10-31 15:44:43 +0000";
layers = (
{
layerId = m01;
shapes = (
{
closed = 1;
nodes = (
(403,0,l),
(400,389,l),
(342,389,ls),
(302,389,o),
(272,390,o),
(272,452,cs),
(272,477,l),
(433,477,l),
(433,549,l),
(272,549,l),
(272,617,l),
(436,617,ls),
(483,617,o),
(501,595,o),
(501,527,c),
(608,527,l),
(605,716,l),
(32,716,l),
(32,658,l),
(93,658,o),
(120,647,o),
(120,593,cs),
(120,471,ls),
(120,418,o),
(96,389,o),
(40,389,c),
(40,0,l)
);
}
);
width = 640;
}
);
unicode = 70;
},
{
color = 2;
glyphname = G;
lastChange = "2023-10-31 15:44:43 +0000";
layers = (
{
layerId = m01;
shapes = (
{
closed = 1;
nodes = (
(378,0,ls),
(447,0,o),
(468,32,o),
(468,110,cs),
(468,189,l),
(490,189,o),
(502,183,o),
(501,94,cs),
(500,0,l),
(542,0,ls),
(572,0,o),
(576,10,o),
(576,59,cs),
(580,486,l),
(468,486,l),
(470,465,ls),
(473,433,o),
(460,403,o),
(423,403,cs),
(378,403,ls),
(350,403,o),
(327,424,o),
(327,446,cs),
(326,587,ls),
(326,620,o),
(343,639,o),
(386,639,cs),
(412,639,ls),
(447,639,o),
(468,629,o),
(471,599,cs),
(475,561,l),
(588,570,l),
(588,660,o),
(524,716,o),
(459,716,cs),
(135,716,ls),
(68,716,o),
(18,660,o),
(17,553,cs),
(13,201,ls),
(12,103,o),
(56,0,o),
(162,0,cs)
);
}
);
width = 600;
}
);
unicode = 71;
},
{
color = 2;
glyphname = H;
lastChange = "2023-10-31 16:00:12 +0000";
layers = (
{
background = {
shapes = (
{
closed = 1;
nodes = (
(648,0,l),
(658,443,l),
(631,443,o),
(594,450,o),
(594,476,cs),
(594,568,ls),
(594,610,o),
(600,633,o),
(662,633,c),
(662,714,l),
(394,713,l),
(394,631,l),
(425,631,o),
(462,614,o),
(462,581,c),
(462,564,l),
(275,564,l),
(275,610,o),
(300,631,o),
(339,631,c),
(339,715,l),
(76,716,l),
(76,636,l),
(130,636,o),
(147,596,o),
(147,568,cs),
(147,526,ls),
(147,470,o),
(137,440,o),
(81,440,c),
(81,0,l),
(344,0,l),
(340,434,l),
(305,434,o),
(280,461,o),
(280,482,cs),
(280,506,l),
(459,506,l),
(459,480,ls),
(459,461,o),
(429,432,o),
(394,432,c),
(395,0,l)
);
}
);
};
layerId = m01;
shapes = (
{
closed = 1;
nodes = (
(340,0,l),
(340,434,l),
(303,434,o),
(275,457,o),
(275,482,cs),
(275,506,l),
(462,506,l),
(462,482,ls),
(462,457,o),
(434,434,o),
(398,434,c),
(398,0,l),
(689,0,l),
(689,440,l),
(631,440,o),
(621,463,o),
(621,506,cs),
(621,567,ls),
(621,607,o),
(638,636,o),
(689,636,c),
(689,716,l),
(398,716,l),
(398,631,l),
(442,631,o),
(462,610,o),
(462,575,cs),
(462,564,l),
(275,564,l),
(275,575,ls),
(275,610,o),
(295,631,o),
(340,631,c),
(340,716,l),
(48,716,l),
(48,636,l),
(99,636,o),
(116,607,o),
(116,567,cs),
(116,506,ls),
(116,463,o),
(106,440,o),
(48,440,c),
(48,0,l)
);
}
);
width = 737;
}
);
unicode = 72;
},
{
color = 2;
glyphname = I;
lastChange = "2023-10-31 15:54:21 +0000";
layers = (
{
background = {
shapes = (
{
closed = 1;
nodes = (
(199,16,l),
(362,16,l),
(362,422,l),
(309,422,o),
(290,440,o),
(289,468,cs),
(287,573,ls),
(287,597,o),
(313,625,o),
(337,625,c),
(372,626,l),
(371,716,l),
(199,717,l),
(46,718,l),
(44,633,l),
(90,633,o),
(124,613,o),
(124,557,cs),
(124,499,ls),
(124,464,o),
(114,428,o),
(48,428,c),
(50,16,l)
);
}
);
};
layerId = m01;
shapes = (
{
closed = 1;
nodes = (
(363,0,l),
(363,428,l),
(297,428,o),
(287,464,o),
(287,499,cs),
(287,557,ls),
(287,613,o),
(321,633,o),
(363,633,c),
(363,716,l),
(48,716,l),
(48,633,l),
(90,633,o),
(124,613,o),
(124,557,cs),
(124,499,ls),
(124,464,o),
(114,428,o),
(48,428,c),
(48,0,l)
);
}
);
width = 411;
}
);
metricLeft = H;
metricRight = H;
unicode = 73;
},
{
color = 2;
glyphname = J;
lastChange = "2023-10-31 15:54:21 +0000";
layers = (
{
layerId = m01;
shapes = (
{
closed = 1;
nodes = (
(449,0,ls),
(535,0,o),
(635,54,o),
(633,183,cs),
(630,410,l),
(552,410,o),
(545,441,o),
(545,477,cs),
(545,569,ls),
(545,627,o),
(569,645,o),
(632,645,c),
(634,716,l),
(296,716,l),
(296,645,l),
(377,645,o),
(394,619,o),
(394,556,cs),
(394,422,ls),
(394,384,o),
(385,335,o),
(320,335,cs),
(165,336,ls),
(104,336,o),
(93,346,o),
(93,388,c),
(32,388,l),
(32,203,ls),
(32,87,o),
(115,0,o),
(264,0,cs)
);
}
);
width = 666;
}
);
unicode = 74;
},
{
color = 2;
glyphname = K;
lastChange = "2023-10-31 15:54:21 +0000";
layers = (
{
layerId = m01;
shapes = (
{
closed = 1;
nodes = (
(284,0,l),
(284,370,l),
(260,370,o),
(244,391,o),
(244,407,cs),
(244,429,o),
(260,444,o),
(298,444,cs),
(324,444,o),
(341,429,o),
(341,407,cs),
(341,391,o),
(331,370,o),
(313,370,c),
(313,0,l),
(778,0,l),
(778,314,l),
(731,330,o),
(695,347,o),
(638,380,cs),
(609,397,o),
(559,429,o),
(520,462,c),
(624,550,ls),
(641,565,o),
(657,576,o),
(686,585,cs),
(718,595,o),
(737,595,o),
(778,595,c),
(778,716,l),
(497,716,ls),
(474,716,o),
(459,709,o),
(459,686,cs),
(459,660,o),
(471,652,o),
(493,652,cs),
(505,652,l),
(506,638,l),
(309,474,l),
(299,487,o),
(293,511,o),
(293,536,cs),
(293,601,o),
(355,632,o),
(412,632,c),
(412,716,l),
(36,716,l),
(36,633,l),
(91,633,o),
(117,611,o),
(117,557,cs),
(117,429,ls),
(117,379,o),
(97,349,o),
(36,349,c),
(36,0,l)
);
}
);
width = 814;
}
);
unicode = 75;
},
{
color = 2;
glyphname = L;
lastChange = "2023-10-31 15:54:21 +0000";
layers = (
{
layerId = m01;
shapes = (
{
closed = 1;
nodes = (
(642,0,l),
(653,404,l),
(586,404,l),
(586,370,o),
(581,344,o),
(563,318,cs),
(554,304,o),
(522,292,o),
(488,292,cs),
(343,292,ls),
(299,292,o),
(282,314,o),
(282,362,cs),
(282,568,ls),
(282,636,o),
(307,649,o),
(361,649,c),
(361,716,l),
(32,716,l),
(32,649,l),
(92,649,o),
(121,636,o),
(121,568,cs),
(121,453,ls),
(121,391,o),
(113,368,o),
(32,368,c),
(32,0,l)
);
}
);
width = 685;
}
);
unicode = 76;
},
{
glyphname = M;
lastChange = "2023-10-31 15:55:35 +0000";
layers = (
{
layerId = m01;
shapes = (
{
closed = 1;
nodes = (
(354,0,l),
(354,338,l),
(290,338,o),
(268,378,o),
(268,418,cs),
(268,517,l),
(375,417,l),
(482,517,l),
(482,418,ls),
(482,378,o),
(460,338,o),
(396,338,c),
(396,0,l),
(711,0,l),
(711,351,l),
(650,351,o),
(629,385,o),
(629,421,cs),
(628,550,ls),
(628,584,o),
(646,618,o),
(711,618,c),
(711,716,l),
(460,716,l),
(375,549,l),
(290,716,l),
(39,716,l),
(39,618,l),
(104,618,o),
(122,584,o),
(122,550,cs),
(121,421,ls),
(121,385,o),
(100,351,o),
(39,351,c),
(39,0,l)
);
}
);
width = 741;
}
);
unicode = 77;
},
{
color = 2;
glyphname = N;
lastChange = "2023-10-31 15:57:06 +0000";
layers = (
{
layerId = m01;
shapes = (
{
closed = 1;
nodes = (
(356,0,l),
(356,377,l),
(306,377,o),
(267,399,o),
(267,445,cs),
(267,507,l),
(453,377,l),
(392,377,l),
(392,0,l),
(731,0,l),
(731,377,l),
(683,377,o),
(657,416,o),
(657,463,cs),
(657,538,ls),
(657,610,o),
(688,622,o),
(731,622,c),
(731,716,l),
(439,716,l),
(439,622,l),
(483,622,o),
(522,608,o),
(522,538,cs),
(522,467,l),
(196,716,l),
(36,716,l),
(36,636,l),
(86,636,o),
(117,615,o),
(117,553,cs),
(117,457,ls),
(117,399,o),
(92,377,o),
(36,377,c),
(36,0,l)
);
}
);
width = 776;
}
);
unicode = 78;
},
{
color = 2;
glyphname = O;
lastChange = "2023-10-31 15:58:14 +0000";
layers = (
{
layerId = m01;
shapes = (
{
closed = 1;
nodes = (
(525,0,ls),
(623,0,o),
(673,38,o),
(674,111,cs),
(681,559,ls),
(682,640,o),
(608,716,o),
(528,716,cs),
(164,716,ls),
(88,716,o),
(32,659,o),
(32,580,cs),
(33,140,ls),
(33,54,o),
(83,0,o),
(163,0,cs)
);
},
{
closed = 1;
nodes = (
(383,442,o),
(362,465,o),
(362,485,cs),
(362,615,ls),
(362,636,o),
(383,656,o),
(404,656,cs),
(501,656,ls),
(521,656,o),
(545,631,o),
(545,602,cs),
(545,492,ls),
(545,468,o),
(524,442,o),
(501,442,cs),
(477,442,ls),
(462,442,o),
(460,443,o),
(451,461,c),
(443,443,o),
(441,442,o),
(426,442,cs),
(403,442,ls)
);
}
);
width = 713;
}
);
unicode = 79;
},
{
color = 2;
glyphname = P;
lastChange = "2023-10-31 16:01:44 +0000";
layers = (
{
layerId = m01;
shapes = (
{
closed = 1;
nodes = (
(343,0,l),
(349,401,l),
(307,401,ls),
(246,401,o),
(236,432,o),
(236,461,cs),
(236,489,l),
(532,490,ls),
(612,490,o),
(653,529,o),
(653,610,cs),
(653,676,o),
(608,717,o),
(490,717,cs),
(35,717,l),
(35,654,l),
(71,654,o),
(90,633,o),
(90,595,cs),
(90,461,ls),
(90,417,o),
(79,401,o),
(35,401,c),
(35,0,l)
);
},
{
closed = 1;
nodes = (
(236,628,l),
(437,628,ls),
(476,628,o),
(484,619,o),
(484,603,cs),
(484,591,o),
(474,579,o),
(441,579,cs),
(236,579,l)
);
}
);
width = 685;
}
);
unicode = 80;
},
{
glyphname = R;
lastChange = "2023-10-31 15:35:55 +0000";
layers = (
{
layerId = m01;
shapes = (
{
closed = 1;
nodes = (
(279,15,l),
(279,317,l),
(250,317,o),
(213,329,o),
(213,354,cs),
(213,386,o),
(270,386,o),
(302,386,cs),
(332,386,o),
(386,386,o),
(386,356,cs),
(386,334,o),
(361,324,o),
(330,324,c),
(337,16,l),
(574,16,l),
(574,293,ls),
(574,366,o),
(491,434,o),
(418,446,cs),
(345,446,ls),
(319,446,o),
(284,446,o),
(284,489,c),
(437,489,ls),
(562,489,o),
(570,556,o),
(570,618,cs),
(570,695,o),
(491,722,o),
(433,722,cs),
(40,722,l),
(40,672,l),
(79,672,o),
(100,644,o),
(100,615,cs),
(101,537,ls),
(101,507,o),
(84,477,o),
(31,477,c),
(31,470,o),
(30,169,o),
(30,15,c)
);
},
{
closed = 1;
nodes = (
(224,575,l),
(224,635,l),
(361,641,l),
(386,641,o),
(403,628,o),
(403,611,cs),
(403,592,o),
(386,573,o),
(362,573,c)
);
}
);
width = 600;
}
);
unicode = (82,114);
},
{
glyphname = S;
lastChange = "2023-10-31 15:35:55 +0000";
layers = (
{
layerId = m01;
shapes = (
{
closed = 1;
nodes = (
(624,15,o),
(689,82,o),
(689,160,cs),
(689,335,l),
(689,473,o),
(535,494,o),
(422,509,cs),
(394,513,o),
(359,534,o),
(359,565,cs),
(359,587,o),
(392,603,o),
(414,603,cs),
(441,603,o),
(471,573,o),
(471,547,c),
(694,534,l),
(693,559,o),
(695,633,o),
(679,652,cs),
(639,699,o),
(588,709,o),
(538,709,c),
(134,704,ls),
(101,704,o),
(59,678,o),
(59,617,cs),
(59,523,o),
(261,477,o),
(370,455,cs),
(411,447,o),
(466,441,o),
(466,385,cs),
(466,362,o),
(434,342,o),
(411,342,cs),
(381,342,o),
(344,362,o),
(345,402,cs),
(346,435,l),
(32,436,l),
(32,154,ls),
(32,67,o),
(113,18,o),
(180,18,cs),
(521,16,ls)
);
},
{
closed = 0;
nodes = (
(399,103,l)
);
}
);
width = 726;
}
);
unicode = 83;
},
{
glyphname = T;
lastChange = "2023-10-31 15:35:55 +0000";
layers = (
{
layerId = m01;
shapes = (
{
closed = 1;
nodes = (
(519,15,l),
(514,414,l),
(385,415,l),
(383,546,l),
(404,552,o),
(423,555,o),
(440,555,cs),
(487,555,o),
(516,534,o),
(517,505,cs),
(518,466,l),
(630,465,l),
(632,715,l),
(32,715,l),
(34,465,l),
(146,466,l),
(147,505,ls),
(148,534,o),
(177,555,o),
(224,555,cs),
(241,555,o),
(260,552,o),
(281,546,c),
(279,415,l),
(150,414,l),
(145,15,l)
);
}
);
width = 662;
}
);
unicode = (84,116);
},
{
glyphname = U;
lastChange = "2023-10-31 15:35:55 +0000";
layers = (
{
layerId = m01;
shapes = (
{
closed = 1;
nodes = (
(428,1,o),
(504,54,o),
(504,160,c),
(511,160,l),
(524,15,l),
(615,15,l),
(615,412,l),
(557,412,o),
(534,444,o),
(534,524,cs),
(534,604,o),
(557,636,o),
(615,636,c),
(615,716,l),
(350,716,l),
(350,636,l),
(386,636,o),
(395,583,o),
(395,503,cs),
(395,423,o),
(386,376,o),
(350,376,cs),
(339,376,o),
(327,376,o),
(316,391,c),
(306,376,o),
(295,376,o),
(285,376,cs),
(249,376,o),
(240,423,o),
(240,503,cs),
(240,583,o),
(249,636,o),
(285,636,c),
(285,716,l),
(20,716,l),
(20,636,l),
(78,636,o),
(101,604,o),
(101,524,cs),
(101,444,o),
(78,412,o),
(20,412,c),
(19,190,ls),
(19,44,o),
(77,1,o),
(278,1,cs)
);
}
);
width = 635;
}
);
unicode = (85,117);
},
{
glyphname = V;
lastChange = "2023-10-31 15:35:55 +0000";
layers = (
{
layerId = m01;
shapes = (
{
closed = 1;
nodes = (
(590,568,ls),
(597,598,o),
(599,629,o),
(662,628,c),
(666,715,l),
(436,714,l),
(437,614,l),
(468,618,o),
(482,575,o),
(476,553,cs),
(402,279,l),
(347,552,ls),
(340,587,o),
(347,609,o),
(385,622,c),
(385,712,l),
(32,712,l),
(32,634,l),
(86,631,o),
(93,598,o),
(99,567,cs),
(202,13,l),
(455,11,l)
);
}
);
width = 698;
}
);
unicode = 86;
},
{
glyphname = W;
lastChange = "2023-10-31 15:35:55 +0000";
layers = (
{
layerId = m01;
shapes = (
{
closed = 1;
nodes = (
(303,14,l),
(304,334,l),
(260,338,l),
(352,417,l),
(430,319,l),
(386,314,l),
(395,14,l),
(671,14,l),
(672,455,l),
(618,455,o),
(601,487,o),
(601,520,cs),
(601,575,ls),
(601,624,o),
(604,633,o),
(681,633,c),
(680,716,l),
(399,716,l),
(404,613,l),
(456,613,o),
(468,589,o),
(467,562,cs),
(462,457,l),
(364,574,l),
(251,496,l),
(249,573,ls),
(248,608,o),
(262,633,o),
(310,633,c),
(306,716,l),
(32,716,l),
(32,637,l),
(87,637,o),
(110,611,o),
(110,579,cs),
(110,510,ls),
(110,477,o),
(95,443,o),
(35,443,c),
(35,14,l)
);
}
);
width = 713;
}
);
unicode = (87,119);
},
{
glyphname = X;
lastChange = "2023-10-31 15:35:55 +0000";
layers = (
{
layerId = m01;
shapes = (
{
closed = 1;
nodes = (
(293,14,l),
(287,334,l),
(261,334,o),
(246,343,o),
(235,360,c),
(306,455,l),
(380,352,l),
(366,334,o),
(348,331,o),
(328,331,c),
(332,14,l),
(573,14,l),
(573,364,l),
(519,360,l),
(416,481,l),
(512,612,ls),
(527,632,o),
(543,647,o),
(579,647,c),
(575,716,l),
(338,716,l),
(338,654,l),
(358,647,o),
(368,640,o),
(378,622,c),
(311,520,l),
(237,623,l),
(243,641,o),
(256,651,o),
(275,658,c),
(272,716,l),
(32,716,l),
(34,646,l),
(64,646,o),
(82,636,o),
(96,617,cs),
(199,481,l),
(97,371,l),
(44,370,l),
(55,14,l)
);
}
);
width = 611;
}
);
unicode = (88,120);
},
{
glyphname = Y;
lastChange = "2023-10-31 15:35:55 +0000";
layers = (
{
layerId = m01;
shapes = (
{
closed = 1;
nodes = (
(522,14,l),
(522,357,l),
(412,357,l),
(412,397,l),
(429,406,o),
(461,430,o),
(517,493,cs),
(552,534,o),
(578,576,o),
(592,597,cs),
(601,611,o),
(617,612,o),
(630,612,c),
(630,716,l),
(367,716,l),
(367,618,l),
(417,618,ls),
(428,618,o),
(440,613,o),
(440,596,cs),
(440,582,o),
(425,565,o),
(402,543,cs),
(331,474,l),
(260,543,ls),
(237,565,o),
(222,582,o),
(222,596,cs),
(222,613,o),
(234,618,o),
(245,618,cs),
(295,618,l),
(295,716,l),
(32,716,l),
(32,612,l),
(45,612,o),
(61,611,o),
(70,597,cs),
(84,576,o),
(110,534,o),
(145,493,cs),
(201,430,o),
(233,406,o),
(250,397,c),
(250,357,l),
(140,357,l),
(140,14,l)
);
}
);
width = 662;
}
);
unicode = (89,121);
},
{
glyphname = Z;
lastChange = "2023-10-31 15:35:55 +0000";
layers = (
{
layerId = m01;
shapes = (
{
closed = 1;
nodes = (
(616,18,l),
(617,414,l),
(532,417,l),
(532,382,o),
(507,362,o),
(483,364,cs),
(325,376,l),
(618,647,l),
(618,720,l),
(33,720,l),
(33,490,l),
(133,488,l),
(133,518,o),
(156,538,o),
(176,537,cs),
(315,537,l),
(32,210,l),
(32,14,l)
);
}
);
width = 650;
}
);
unicode = (90,122);
},
